<?xml version="1.0" standalone="no"?>
<!DOCTYPE svg PUBLIC "-//W3C//DTD SVG 20010904//EN"
 "http://www.w3.org/TR/2001/REC-SVG-20010904/DTD/svg10.dtd">
<svg version="1.0" xmlns="http://www.w3.org/2000/svg"
 width="700.000000pt" height="700.000000pt" viewBox="0 0 700.000000 700.000000"
 preserveAspectRatio="xMidYMid meet">
<metadata>
Created by potrace 1.14, written by Peter Selinger 2001-2017
</metadata>
<g transform="translate(0.000000,700.000000) scale(0.100000,-0.100000)"
fill="#000000" stroke="none">
<path d="M0 3500 l0 -3500 3500 0 3500 0 0 3500 0 3500 -3500 0 -3500 0 0
-3500z m5328 2816 c134 -86 850 -797 968 -962 l44 -62 0 -1513 0 -1514 -110
111 -110 111 0 1371 0 1372 -72 82 c-95 109 -630 644 -736 736 l-82 72 -480 0
-480 0 0 -683 0 -683 -31 -30 -30 -29 -1162 -3 c-639 -2 -1181 0 -1205 3 -23
4 -55 17 -70 30 l-27 23 -3 686 -2 686 -430 0 -430 0 0 -2625 0 -2625 1465 0
1465 0 0 -105 0 -105 -1490 0 c-1325 0 -1495 2 -1528 16 -49 20 -90 60 -113
109 -18 39 -19 133 -19 2718 0 2616 0 2679 19 2715 22 42 62 82 106 105 27 15
249 16 2268 17 l2237 0 38 -24z m188 -2250 l34 -34 0 -488 0 -489 -370 370
-370 370 -1023 -1023 -1022 -1022 523 0 522 0 0 -190 0 -190 -1146 0 -1146 0
-34 34 -34 34 0 1297 0 1297 34 34 34 34 1982 0 1982 0 34 -34z m397 -2066
l-348 -5 -3 -873 -2 -872 -750 0 -750 0 0 875 0 875 -347 0 -348 0 725 725
725 725 723 -722 722 -723 -347 -5z m427 -712 c0 -429 -2 -466 -19 -503 -10
-22 -31 -52 -47 -67 -55 -51 -87 -58 -284 -58 l-180 0 0 105 0 105 155 0 155
0 0 440 0 440 110 0 110 0 0 -462z"/>
<path d="M2012 6098 c-11 -13 -25 -36 -31 -51 -7 -19 -11 -201 -11 -538 0
-544 0 -550 50 -594 21 -19 36 -20 386 -20 l364 0 32 33 33 32 0 550 0 549
-29 30 -30 31 -371 0 -372 0 -21 -22z"/>
</g>
</svg>
